<svg xmlns="http://www.w3.org/2000/svg" version="1.1" xmlns:xlink="http://www.w3.org/1999/xlink" xmlns:svgjs="http://svgjs.com/svgjs" width="1920" height="1080" preserveAspectRatio="none" viewBox="0 0 1920 1080"><g mask="url(&quot;#SvgjsMask1103&quot;)" fill="none"><rect width="1920" height="1080" x="0" y="0" fill="rgba(250, 238, 235, 1)"></rect><path d="M0,688.266C134.866,688.487,275.585,678.175,386.916,602.054C496.943,526.825,553.231,399.054,603.519,275.618C652.083,156.413,683.286,31.629,671.528,-96.551C659.348,-229.328,621.211,-361.882,535.657,-464.15C449.34,-567.329,320.093,-615.036,195.448,-665.634C57.911,-721.465,-94.925,-841.152,-227.216,-773.827C-365.51,-703.447,-326.214,-486.228,-411.633,-356.682C-480.736,-251.881,-647.775,-219.697,-673.598,-96.849C-699.383,25.817,-586.039,129.932,-538.28,245.824C-488.216,367.31,-487.611,517.353,-386.103,600.788C-282.051,686.314,-134.691,688.045,0,688.266" fill="#e7ac9d"></path><path d="M1920 1725.5140000000001C2043.261 1718.626 2171.876 1698.7350000000001 2267.302 1620.412 2358.724 1545.376 2401.862 1426.693 2425.315 1310.77 2445.584 1210.584 2387.549 1114.558 2390.316 1012.379 2393.908 879.742 2528.251 728.4639999999999 2443.8559999999998 626.077 2360.316 524.728 2188.241 627.663 2058.172 609.429 1953.718 594.7860000000001 1861.144 505.70500000000004 1758.505 529.998 1654.921 554.514 1587.252 651.14 1523.087 736.073 1462.3600000000001 816.456 1429.903 909.113 1399.525 1005.167 1363.423 1119.321 1302.703 1233.109 1328.952 1349.923 1357.261 1475.904 1437.844 1591.422 1546.8229999999999 1660.675 1655.586 1729.7910000000002 1791.335 1732.704 1920 1725.5140000000001" fill="#ffffff"></path></g><defs><mask id="SvgjsMask1103"><rect width="1920" height="1080" fill="#ffffff"></rect></mask></defs></svg>